<?xml version="1.0" encoding="UTF-8" standalone="no"?>
<!-- Created with Inkscape (http://www.inkscape.org/) -->

<svg
   width="13.500012mm"
   height="185.37292mm"
   viewBox="0 0 13.500012 185.37292"
   version="1.1"
   id="svg931"
   inkscape:version="1.1 (c68e22c387, 2021-05-23)"
   sodipodi:docname="electron-rocket.svg"
   xmlns:inkscape="http://www.inkscape.org/namespaces/inkscape"
   xmlns:sodipodi="http://sodipodi.sourceforge.net/DTD/sodipodi-0.dtd"
   xmlns="http://www.w3.org/2000/svg"
   xmlns:svg="http://www.w3.org/2000/svg"
   xmlns:rdf="http://www.w3.org/1999/02/22-rdf-syntax-ns#"
   xmlns:cc="http://creativecommons.org/ns#"
   xmlns:dc="http://purl.org/dc/elements/1.1/">
  <defs
     id="defs925" />
  <sodipodi:namedview
     id="base"
     pagecolor="#ffffff"
     bordercolor="#666666"
     borderopacity="1.0"
     inkscape:pageopacity="0.0"
     inkscape:pageshadow="2"
     inkscape:zoom="1.979899"
     inkscape:cx="-196.72721"
     inkscape:cy="431.58767"
     inkscape:document-units="mm"
     inkscape:current-layer="layer1"
     showgrid="false"
     inkscape:window-width="1920"
     inkscape:window-height="1079"
     inkscape:window-x="0"
     inkscape:window-y="0"
     inkscape:window-maximized="1"
     inkscape:pagecheckerboard="0"
     fit-margin-top="0"
     fit-margin-left="0"
     fit-margin-right="0"
     fit-margin-bottom="0" />
  <metadata
     id="metadata928">
    <rdf:RDF>
      <cc:Work
         rdf:about="">
        <dc:format>image/svg+xml</dc:format>
        <dc:type
           rdf:resource="http://purl.org/dc/dcmitype/StillImage" />
      </cc:Work>
    </rdf:RDF>
  </metadata>
  <g
     inkscape:label="Calque 1"
     inkscape:groupmode="layer"
     id="layer1"
     transform="translate(-83.999999,-18.131491)">
    <path
       style="fill:#1a1a1a;stroke:none;stroke-width:0.264583px;stroke-linecap:butt;stroke-linejoin:miter;stroke-opacity:1"
       d="M 84.5,32.5 H 97 C 95.955126,27.735363 95.138439,23.396891 92.5,19 c -0.890463,-1.201941 -2.195629,-1.113233 -3,0 -2.584482,4.429825 -4.037005,8.88308 -5,13.5 z"
       id="path1487"
       inkscape:connector-curvature="0"
       sodipodi:nodetypes="ccccc" />
    <path
       style="fill:#1a1a1a;stroke:none;stroke-width:0.264583px;stroke-linecap:butt;stroke-linejoin:miter;stroke-opacity:1"
       d="M 84.499999,32.500001 84.5,44 H 97 l -2e-6,-11.499999 z"
       id="path1489"
       inkscape:connector-curvature="0"
       sodipodi:nodetypes="ccccc" />
    <path
       style="fill:#ececec;stroke:none;stroke-width:0.306626px;stroke-linecap:butt;stroke-linejoin:miter;stroke-opacity:1"
       d="m 84.5,44 10e-7,15.445125 h 12.5 L 96.999999,44 Z"
       id="path1489-5"
       inkscape:connector-curvature="0"
       sodipodi:nodetypes="ccccc" />
    <path
       style="fill:#1a1a1a;stroke:none;stroke-width:0.20729px;stroke-linecap:butt;stroke-linejoin:miter;stroke-opacity:1"
       d="m 84.500001,59.445125 10e-7,7.058778 h 12.5 L 97,59.445125 Z"
       id="path1489-5-6"
       inkscape:connector-curvature="0"
       sodipodi:nodetypes="ccccc" />
    <path
       style="fill:#ececec;stroke:none;stroke-width:0.158094px;stroke-linecap:butt;stroke-linejoin:miter;stroke-opacity:1"
       d="m 84.500003,66.503903 10e-7,4.105839 h 12.5 l -2e-6,-4.105839 z"
       id="path1489-5-6-2"
       inkscape:connector-curvature="0"
       sodipodi:nodetypes="ccccc" />
    <path
       style="fill:#1a1a1a;stroke:none;stroke-width:0.32727px;stroke-linecap:butt;stroke-linejoin:miter;stroke-opacity:1"
       d="m 84.500005,70.609742 10e-7,17.594864 h 12.5 l -2e-6,-17.594864 z"
       id="path1489-5-6-2-9"
       inkscape:connector-curvature="0"
       sodipodi:nodetypes="ccccc" />
    <path
       style="fill:#ececec;stroke:none;stroke-width:0.595235px;stroke-linecap:butt;stroke-linejoin:miter;stroke-opacity:1"
       d="m 84.500007,88.204606 10e-7,58.203684 h 12.5 l -2e-6,-58.203684 z"
       id="path1489-5-6-2-9-1"
       inkscape:connector-curvature="0"
       sodipodi:nodetypes="ccccc" />
    <path
       style="fill:#1a1a1a;stroke:none;stroke-width:0.467036px;stroke-linecap:butt;stroke-linejoin:miter;stroke-opacity:1"
       d="m 84.500009,146.40829 10e-7,35.83222 h 12.5 l -2e-6,-35.83222 z"
       id="path1489-5-6-2-9-2"
       inkscape:connector-curvature="0"
       sodipodi:nodetypes="ccccc" />
    <path
       style="fill:#ececec;stroke:none;stroke-width:0.159452px;stroke-linecap:butt;stroke-linejoin:miter;stroke-opacity:1"
       d="m 84.500011,182.24051 10e-7,4.17672 h 12.5 l -2e-6,-4.17672 z"
       id="path1489-5-6-2-9-7"
       inkscape:connector-curvature="0"
       sodipodi:nodetypes="ccccc" />
    <path
       style="fill:#1a1a1a;stroke:none;stroke-width:0.310818px;stroke-linecap:butt;stroke-linejoin:miter;stroke-opacity:1"
       d="m 84.500013,186.41723 10e-7,15.88277 h 12.5 l -2e-6,-15.88277 z"
       id="path1489-5-6-2-9-0"
       inkscape:connector-curvature="0"
       sodipodi:nodetypes="ccccc" />
    <path
       style="fill:#4d4d4d;stroke:none;stroke-width:0.264583px;stroke-linecap:butt;stroke-linejoin:miter;stroke-opacity:1"
       d="m 90.4,202.3 -0.7,1.2 h 2 L 91,202.3 Z"
       id="path1603"
       inkscape:connector-curvature="0"
       sodipodi:nodetypes="ccccc" />
    <path
       style="fill:#4d4d4d;stroke:none;stroke-width:0.264583px;stroke-linecap:butt;stroke-linejoin:miter;stroke-opacity:1"
       d="m 87.715196,202.27101 -0.7,1.2 h 2 l -0.7,-1.2 z"
       id="path1603-9"
       inkscape:connector-curvature="0"
       sodipodi:nodetypes="ccccc" />
    <path
       style="fill:#4d4d4d;stroke:none;stroke-width:0.264583px;stroke-linecap:butt;stroke-linejoin:miter;stroke-opacity:1"
       d="m 86.166213,202.25431 -0.7,1.2 h 2 l -0.7,-1.2 z"
       id="path1603-3"
       inkscape:connector-curvature="0"
       sodipodi:nodetypes="ccccc" />
    <path
       style="fill:#4d4d4d;stroke:none;stroke-width:0.264583px;stroke-linecap:butt;stroke-linejoin:miter;stroke-opacity:1"
       d="m 93.060587,202.28772 -0.7,1.2 h 2 l -0.7,-1.2 z"
       id="path1603-6"
       inkscape:connector-curvature="0"
       sodipodi:nodetypes="ccccc" />
    <path
       style="fill:#4d4d4d;stroke:none;stroke-width:0.264583px;stroke-linecap:butt;stroke-linejoin:miter;stroke-opacity:1"
       d="m 94.697612,202.30442 -0.7,1.2 h 2 l -0.7,-1.2 z"
       id="path1603-0"
       inkscape:connector-curvature="0"
       sodipodi:nodetypes="ccccc" />
    <path
       style="fill:none;stroke:#1a1a1a;stroke-width:1;stroke-linecap:butt;stroke-linejoin:miter;stroke-miterlimit:4;stroke-dasharray:none;stroke-opacity:1"
       d="m 84.499999,45.058332 1.1e-5,138.769678"
       id="path1638"
       inkscape:connector-curvature="0"
       sodipodi:nodetypes="cc" />
    <path
       style="fill:none;stroke:#1a1a1a;stroke-width:1;stroke-linecap:butt;stroke-linejoin:miter;stroke-miterlimit:4;stroke-dasharray:none;stroke-opacity:1"
       d="m 97,45.058334 1.1e-5,138.769686"
       id="path1638-6"
       inkscape:connector-curvature="0"
       sodipodi:nodetypes="cc" />
    <g
       id="g1751"
       transform="matrix(0.22150975,0,0,0.22150975,100.88738,47.550707)">
      <circle
         r="7.5"
         cy="144.51956"
         cx="-46.80006"
         id="path826-7"
         style="fill:#cccccc;stroke:none;stroke-width:1.80606;stroke-linecap:round;stroke-linejoin:round" />
      <circle
         r="2"
         cy="131.96095"
         cx="-59.375721"
         id="path826"
         style="fill:#cccccc;stroke:none;stroke-width:0.481617;stroke-linecap:round;stroke-linejoin:round" />
      <circle
         r="2"
         cy="139.92838"
         cx="-29.308189"
         id="path826-3"
         style="fill:#cccccc;stroke:none;stroke-width:0.481617;stroke-linecap:round;stroke-linejoin:round" />
      <circle
         r="2"
         cy="162.0602"
         cx="-51.382671"
         id="path826-6"
         style="fill:#cccccc;stroke:none;stroke-width:0.481617;stroke-linecap:round;stroke-linejoin:round" />
      <ellipse
         cx="154.89653"
         cy="41.060623"
         rx="20.873165"
         ry="9.2221746"
         transform="matrix(-0.04495958,0.99898881,-0.96832038,-0.24971111,0,0)"
         id="path855"
         style="fill:none;stroke:#cccccc;stroke-width:0.667188;stroke-linecap:round;stroke-linejoin:round;stroke-miterlimit:4;stroke-dasharray:none" />
      <ellipse
         cx="69.721336"
         cy="150.19809"
         rx="20.532749"
         ry="9.4563055"
         transform="matrix(0.84137752,0.54044784,-0.7021243,0.7120544,0,0)"
         id="path855-5"
         style="fill:none;stroke:#cccccc;stroke-width:0.667188;stroke-linecap:round;stroke-linejoin:round;stroke-miterlimit:4;stroke-dasharray:none" />
      <ellipse
         cx="85.135696"
         cy="-109.59885"
         rx="20.532749"
         ry="9.4563055"
         transform="matrix(-0.88877045,0.45835258,-0.26551064,-0.96410793,0,0)"
         id="path855-3"
         style="fill:none;stroke:#cccccc;stroke-width:0.667188;stroke-linecap:round;stroke-linejoin:round;stroke-miterlimit:4;stroke-dasharray:none" />
      <path
         inkscape:connector-curvature="0"
         id="path878"
         d="m -46.39423,149.76775 c -0.648679,-0.31421 -0.415559,-1.2467 -0.121619,-1.30751 0.29393,-0.0608 -0.78046,-0.49665 -1.59131,-0.19258 -0.81086,0.30407 -1.27711,0.98316 -1.28724,1.40887 -0.0101,0.4257 0.44597,0.36488 0.45611,0.66895 0.0101,0.30407 -0.2838,0.23312 -0.15204,0.47638 0.131769,0.24326 0.27366,-0.0912 0.72977,0.20272 0.45611,0.29393 0.496649,0.61828 1.22642,0.59801 0.72978,-0.0203 0.76018,-0.10136 0.80073,-0.2534 0.0405,-0.15204 -0.0507,-0.68923 0.19258,-0.73991 0.24325,-0.0507 0.62841,-0.22298 0.84126,-0.0405 0.21285,0.18244 0.10136,0.53719 0.40543,0.50679 0.30407,-0.0304 0.12163,-0.58787 0.20272,-0.71964 0.0811,-0.13176 0.23312,-0.0101 0.23312,-0.15204 0,-0.1419 -0.405431,-0.90208 -0.7095,-0.91221 -0.30407,-0.0101 -0.43584,0.32434 -0.62842,0.40543 -0.19258,0.0811 -0.4257,0.0507 -0.598011,0.0507 z"
         style="fill:#1a1a1a;stroke:none;stroke-width:0.264583px;stroke-linecap:butt;stroke-linejoin:miter;stroke-opacity:1" />
      <path
         inkscape:connector-curvature="0"
         id="path880"
         d="m -46.63748,144.51744 c -0.324349,0.16217 -0.314209,0.26353 -0.314209,0.26353 l 0.30407,0.18244 0.22299,-0.25339 z"
         style="fill:#1a1a1a;stroke:none;stroke-width:0.264583px;stroke-linecap:butt;stroke-linejoin:miter;stroke-opacity:1" />
      <path
         inkscape:connector-curvature="0"
         id="path882"
         d="m -47.154409,145.09518 -0.67909,0.77031 0.24326,0.12163 0.7095,-0.81086 z"
         style="fill:#1a1a1a;stroke:none;stroke-width:0.264583px;stroke-linecap:butt;stroke-linejoin:miter;stroke-opacity:1" />
      <path
         inkscape:connector-curvature="0"
         id="path884"
         d="m -50.560009,144.46676 c 0.71964,-0.0203 0.54733,0.2838 0.8514,0.29394 0.30407,0.0101 0.62842,-0.45611 0.73991,-0.76018 0.11149,-0.30408 0.16217,-0.5676 -0.0405,-0.76018 -0.202721,-0.19258 -0.99331,-0.72978 -1.1048,-0.9629 -0.11149,-0.23312 -0.0912,-0.63855 -0.2838,-0.598 -0.19258,0.0405 0,0.0912 0.0203,0.40543 0.0203,0.3142 -0.1115,0.42569 -0.48652,0.4561 -0.37502,0.0304 -0.33448,-0.32434 -0.64869,-0.30407 -0.3142,0.0203 -0.58787,0.9629 -0.67909,1.07439 -0.0912,0.11149 0.0304,0.77031 -0.10135,0.82099 -0.13177,0.0507 -0.2534,0.0405 -0.2534,0.29394 0,0.25339 0.0304,0.60814 0.24326,0.78045 0.21285,0.17231 0.41556,0.37502 0.41556,0.54733 0,0.17231 0.36489,-0.77032 0.5372,-0.91222 0.17231,-0.1419 0.32434,-0.36488 0.79058,-0.37502 z"
         style="fill:#1a1a1a;stroke:none;stroke-width:0.264583px;stroke-linecap:butt;stroke-linejoin:miter;stroke-opacity:1" />
      <path
         inkscape:connector-curvature="0"
         id="path886"
         d="m -48.066619,141.99364 0.40543,-0.0101 -0.0304,0.19258 -0.33448,-0.0405 z"
         style="fill:#1a1a1a;stroke:none;stroke-width:0.264583px;stroke-linecap:butt;stroke-linejoin:miter;stroke-opacity:1" />
      <path
         inkscape:connector-curvature="0"
         id="path888"
         d="m -51.685079,141.06116 c 0,0 0.98317,0.0405 1.08453,-0.0101 0.10135,-0.0507 0.30407,-0.21285 0.4257,-0.21285 0.12162,0 0.233119,0.1419 0.36488,0.0608 0.13177,-0.0811 0.30408,-0.20272 0.1419,-0.2534 -0.16217,-0.0507 -1.42913,-0.1419 -1.55076,-0.0608 -0.12163,0.0811 0.0912,0.29393 -0.152041,0.33448 -0.24326,0.0405 -0.314209,0.1419 -0.314209,0.1419 z"
         style="fill:#1a1a1a;stroke:none;stroke-width:0.264583px;stroke-linecap:butt;stroke-linejoin:miter;stroke-opacity:1" />
      <path
         inkscape:connector-curvature="0"
         id="path890"
         d="m -46.25233,141.46658 c -0.0912,0.0608 -0.0304,0.1115 -0.0304,0.1115 h 0.10135 z"
         style="fill:#1a1a1a;stroke:none;stroke-width:0.264583px;stroke-linecap:butt;stroke-linejoin:miter;stroke-opacity:1" />
      <path
         inkscape:connector-curvature="0"
         id="path892"
         d="m -53.539909,142.97681 -0.071,0.10136 c 0,0 0.0608,0.1419 0.10136,0.1419 0.0406,0 0.0811,-0.0912 0.0811,-0.0912 z"
         style="fill:#1a1a1a;stroke:none;stroke-width:0.264583px;stroke-linecap:butt;stroke-linejoin:miter;stroke-opacity:1" />
      <path
         inkscape:connector-curvature="0"
         id="path894"
         d="m -53.75276,143.25047 -0.152039,0.0608 0.10135,0.10135 0.131769,-0.0405 -0.0608,-0.0811 z"
         style="fill:#1a1a1a;stroke:none;stroke-width:0.264583px;stroke-linecap:butt;stroke-linejoin:miter;stroke-opacity:1" />
      <path
         inkscape:connector-curvature="0"
         id="path896"
         d="m -53.519639,142.13554 -0.0608,0.16217 0.0811,0.13177 0.0507,-0.1419 z"
         style="fill:none;stroke:none;stroke-width:0.264583px;stroke-linecap:butt;stroke-linejoin:miter;stroke-opacity:1" />
      <path
         inkscape:connector-curvature="0"
         id="path898"
         d="m -52.678379,141.75038 -0.101361,-0.0101 v 0.0912 h 0.0912 z"
         style="fill:#1a1a1a;stroke:none;stroke-width:0.264583px;stroke-linecap:butt;stroke-linejoin:miter;stroke-opacity:1" />
      <path
         inkscape:connector-curvature="0"
         id="path900"
         d="m -52.47924,142.26483 h 0.10751 l -0.0358,0.0645 -0.0645,-0.0143 z"
         style="fill:#1a1a1a;stroke:none;stroke-width:0.264583px;stroke-linecap:butt;stroke-linejoin:miter;stroke-opacity:1" />
      <path
         inkscape:connector-curvature="0"
         id="path902"
         d="m -52.50074,140.64508 0.10751,0.0143 -0.0287,0.086 -0.121841,0.007 z"
         style="fill:#1a1a1a;stroke:none;stroke-width:0.264583px;stroke-linecap:butt;stroke-linejoin:miter;stroke-opacity:1" />
      <path
         inkscape:connector-curvature="0"
         id="path904"
         d="m -52.37173,142.26483 0.15767,0.007 -0.15767,-0.007 v 0 0 l 0.164841,0.007 -0.200641,0.0573 z"
         style="fill:#1a1a1a;stroke:none;stroke-width:0.264583px;stroke-linecap:butt;stroke-linejoin:miter;stroke-opacity:1" />
    </g>
    <path
       d="m 92.036285,149.95063 h -2.50451 c -0.0439,0 -0.0879,0 -0.13182,0.011 -0.1428,0.022 -0.23617,0.0989 -0.27462,0.24166 -0.011,0.0439 -0.0165,0.0824 -0.0165,0.12633 v 2.06512 c 0,0.0384 0,0.0769 0.011,0.10984 0.022,0.0934 0.0604,0.17576 0.1483,0.22519 0.0659,0.0385 0.1428,0.0549 0.2142,0.0549 h 2.55943 c 0.0384,0 0.0494,-0.011 0.0494,-0.0494 v -0.3625 c 0,-0.0549 0,-0.0549 -0.0549,-0.0549 h -2.35072 c -0.0494,-0.005 -0.0879,-0.033 -0.0879,-0.0824 v -0.60965 c 0,-0.022 0.005,-0.033 0.0275,-0.033 h 2.39466 c 0.0439,0 0.0549,-0.011 0.0494,-0.0549 -0.005,-0.11535 0,-0.23617 0,-0.35151 0,-0.0549 0,-0.0549 -0.0549,-0.0549 h -2.38917 c -0.022,0 -0.033,-0.005 -0.033,-0.033 v -0.57669 c 0,-0.0494 0.022,-0.0769 0.0714,-0.0879 0.022,-0.006 0.0494,-0.006 0.0714,-0.006 h 2.2958 c 0.0439,0 0.0549,-0.011 0.0549,-0.0549 0,-0.12633 -0.005,-0.24715 0,-0.37348 0.005,-0.0385 -0.011,-0.0494 -0.0494,-0.0494 z m -0.0028,7.40833 h -2.50999 c -0.0439,0 -0.0879,0 -0.13182,0.011 -0.0934,0.0165 -0.18125,0.0549 -0.23068,0.1428 -0.0439,0.0714 -0.0549,0.14829 -0.0549,0.23068 v 2.04864 c 0,0.0384 0,0.0824 0.011,0.12083 0.0165,0.0879 0.0494,0.16477 0.12632,0.21421 0.0769,0.0549 0.16477,0.0659 0.25814,0.0659 h 2.54296 c 0.0384,0 0.0494,-0.011 0.0439,-0.0439 v -0.36249 c 0,-0.0604 0,-0.0604 -0.0549,-0.0604 h -2.31777 c -0.0934,0 -0.12083,-0.0275 -0.12083,-0.12084 v -0.54923 c 0,-0.0385 0.011,-0.0494 0.0494,-0.0494 h 2.38916 c 0.0385,0 0.0494,-0.011 0.0439,-0.0439 v -0.35151 c 0,-0.0714 0.011,-0.0659 -0.0604,-0.0659 H 89.6498 c -0.0384,0 -0.0494,-0.005 -0.0494,-0.0494 v -0.55473 c 0,-0.0549 0.022,-0.0824 0.0769,-0.0934 0.022,-0.005 0.0439,-0.005 0.0659,-0.005 h 2.30129 c 0.0384,0 0.0494,-0.011 0.0494,-0.0494 0,-0.12632 -0.005,-0.25265 0,-0.37897 -0.005,-0.0439 -0.022,-0.0549 -0.0604,-0.0549 z m 0.62676,19.0884 c 0,-0.0329 -0.011,-0.0384 -0.0384,-0.0384 h -0.40644 c -0.0439,0 -0.0549,0.011 -0.0549,0.0549 v 2.26285 c -0.005,0.0439 -0.022,0.0714 -0.0659,0.0824 -0.0659,0.0165 -0.13182,-0.011 -0.18674,-0.0824 -0.25265,-0.32954 -0.50529,-0.65358 -0.75794,-0.98313 -0.2911,-0.37897 -0.58219,-0.75794 -0.87878,-1.13691 -0.0824,-0.10436 -0.17575,-0.19223 -0.31306,-0.23068 -0.13731,-0.0385 -0.27462,-0.0439 -0.41742,-0.022 -0.0934,0.0165 -0.17576,0.0494 -0.24715,0.11533 -0.10436,0.0934 -0.15379,0.2142 -0.15379,0.35701 v 2.35621 c 0,0.0549 0,0.0549 0.0549,0.0549 h 0.37897 c 0.0384,0 0.05839,-0.0112 0.0549,-0.0494 v -2.19145 -0.0439 c 0.005,-0.0659 0.0494,-0.10985 0.11534,-0.11534 0.0659,-0.005 0.10984,0.0275 0.1428,0.0714 0.1428,0.17575 0.2856,0.357 0.4229,0.53276 0.20872,0.26363 0.41743,0.52727 0.62613,0.7854 0.21421,0.26913 0.42841,0.53825 0.64261,0.80189 0.0714,0.0879 0.1428,0.17026 0.24715,0.2142 0.0714,0.0275 0.14281,0.0439 0.21421,0.0494 0.11533,0.011 0.22518,0.005 0.32954,-0.0439 0.20321,-0.0934 0.2856,-0.26913 0.2856,-0.47784 0.005,-0.76343 0.005,-1.54334 0.005,-2.32325 z m -0.63773,-13.01708 h -1.40604 c -0.0989,0 -0.19773,-0.005 -0.2911,-0.0275 -0.21969,-0.0439 -0.40643,-0.1483 -0.54374,-0.32405 -0.17576,-0.22519 -0.24166,-0.47783 -0.19223,-0.76344 0.0549,-0.29658 0.2142,-0.51628 0.47783,-0.65908 0.17026,-0.0934 0.3625,-0.10985 0.55473,-0.10985 0.46685,-0.005 0.9337,0 1.40055,0 0.0384,0 0.0494,-0.011 0.0494,-0.0494 v -0.38446 c 0,-0.0385 -0.011,-0.044 -0.0439,-0.044 h -1.38956 c -0.1483,0 -0.30208,0.011 -0.44489,0.044 -0.43938,0.0879 -0.76343,0.33503 -0.96115,0.73047 -0.1483,0.28561 -0.17576,0.59867 -0.11534,0.91723 0.0769,0.45037 0.32954,0.77441 0.73048,0.98862 0.22518,0.12083 0.47234,0.15379 0.71949,0.15379 0.49432,0.005 0.98314,0 1.47745,0.005 0.0329,0 0.0384,-0.011 0.0384,-0.0384 v -0.37898 c -0.011,-0.0494 -0.022,-0.0604 -0.0604,-0.0604 z m 0.245565,1.33696 h -3.14711 c -0.0384,0 -0.0494,0.011 -0.0439,0.0439 v 0.38447 c 0,0.0439 0.011,0.0549 0.0549,0.0549 h 1.26324 c 0.0604,0 0.0604,0 0.0604,0.0604 v 2.24636 c 0,0.0384 0.011,0.0494 0.0494,0.0494 h 0.38446 c 0.0549,0 0.0549,0 0.0549,-0.0549 v -2.23539 c 0,-0.0604 0,-0.0604 0.0604,-0.0604 H 92.279 c 0.0384,0 0.0494,-0.011 0.0439,-0.0439 v -0.38447 c 0,-0.0494 -0.0165,-0.0604 -0.0549,-0.0604 z m -0.231895,-8.7453 h -1.97725 c -0.0604,0 -0.11534,0 -0.17575,-0.011 -0.15378,-0.0165 -0.24166,-0.0989 -0.26363,-0.24716 -0.011,-0.0659 -0.0165,-0.13731 -0.0165,-0.20871 v -1.85092 c 0,-0.0385 -0.011,-0.0494 -0.0494,-0.0494 h -0.38996 c -0.0384,0 -0.0494,0.011 -0.0494,0.0494 v 1.91683 c 0,0.0989 0.011,0.20322 0.033,0.30208 0.0549,0.23617 0.18674,0.40643 0.41742,0.49431 0.13182,0.0494 0.26913,0.0714 0.41193,0.0714 h 2.05963 c 0.0439,0 0.0494,-0.011 0.0494,-0.0494 0,-0.12083 -0.005,-0.24166 0,-0.36249 0.005,-0.0439 -0.005,-0.0604 -0.0494,-0.0549 z m 0.242875,15.23958 c -0.005,-0.0604 -0.011,-0.12083 -0.011,-0.18124 v -0.62613 c 0,-0.0604 -0.011,-0.12083 -0.022,-0.18125 -0.0439,-0.18674 -0.14829,-0.31306 -0.34053,-0.37897 0.0769,-0.0494 0.1428,-0.0989 0.18674,-0.16477 0.15928,-0.22519 0.19773,-0.47234 0.10436,-0.73048 -0.0769,-0.20871 -0.2142,-0.3625 -0.42291,-0.44488 -0.12633,-0.0494 -0.26363,-0.0714 -0.39545,-0.0714 h -2.09808 c -0.10435,0.005 -0.15928,0.0659 -0.15928,0.16477 v 2.63083 c 0,0.033 0.011,0.0384 0.0385,0.0384 h 0.39545 c 0.0384,0 0.0549,-0.011 0.0549,-0.0494 v -1.05452 c 0,-0.0384 0.011,-0.0494 0.0494,-0.0494 h 1.66418 c 0.0439,0 0.0879,0 0.13181,0.011 0.13182,0.022 0.23618,0.0879 0.2911,0.21969 0.022,0.0549 0.0329,0.10985 0.0329,0.17026 0.005,0.23617 -0.005,0.47234 0.005,0.70852 0,0.0384 0.011,0.0549 0.0549,0.0549 h 0.40094 c 0.0329,-0.022 0.0439,-0.033 0.0384,-0.0659 z m -0.62063,-1.70262 c -0.0824,0.10435 -0.19223,0.15378 -0.32954,0.15928 -0.56022,0.0165 -1.12593,0 -1.68615,0.005 -0.0384,0 -0.0439,-0.011 -0.0439,-0.0439 v -0.65908 c 0,-0.0714 0.022,-0.0934 0.0934,-0.0934 h 1.62024 c 0.0934,0 0.18125,0.022 0.25814,0.0714 0.18674,0.12632 0.22519,0.38446 0.0879,0.56022 z m 1.038122,4.42006 c 0,-0.17105 -0.0549,-0.33502 -0.13181,-0.48881 -0.0824,-0.17576 -0.20322,-0.32405 -0.357,-0.45037 -0.13732,-0.11534 -0.2911,-0.19773 -0.46136,-0.25265 -0.16477,-0.0494 -0.32954,-0.0769 -0.49981,-0.0769 -0.31855,0 -0.63161,-0.0165 -0.95017,0.022 -0.31306,0.0384 -0.57669,0.16476 -0.80188,0.38446 -0.25815,0.25264 -0.38447,0.56571 -0.40094,0.91722 -0.011,0.23617 0.022,0.47234 0.12083,0.69204 0.1428,0.32405 0.37897,0.55472 0.70302,0.69203 0.2087,0.0879 0.4284,0.10985 0.65359,0.12083 0.10984,0.005 0.22518,0 0.33503,0 0.24166,0 0.47783,0.005 0.7195,-0.0439 0.46135,-0.0934 0.7854,-0.36249 0.96665,-0.79089 0.0989,-0.23068 0.10435,-0.47138 0.10435,-0.725 z m -0.9996,0.98863 c -0.11534,0.0549 -0.23618,0.0824 -0.357,0.0934 -0.1483,0.0165 -0.2911,0 -0.40094,0.005 -0.15379,0 -0.27463,0.006 -0.38997,0 -0.21969,-0.011 -0.43389,-0.0604 -0.60965,-0.20321 -0.19772,-0.15928 -0.31305,-0.36799 -0.34601,-0.62063 -0.0275,-0.24716 0.0275,-0.46685 0.17026,-0.67007 0.1483,-0.20321 0.34602,-0.32405 0.59317,-0.3625 0.11534,-0.0165 0.23068,-0.0275 0.34602,-0.022 0.20871,0 0.41742,-0.005 0.63162,0.005 0.45037,0.0329 0.76344,0.31306 0.8623,0.72498 0.0989,0.41743 -0.11534,0.86779 -0.4998,1.04904 z"
       id="path2"
       style="fill:#ececec;stroke-width:0.0549232"
       sodipodi:nodetypes="csccssccssssscsssscssssscsssccccsccssccsscssssssscssssscsssccccssscsccccccsssssccccccscccccccscccccsssssccccccsccccscssssssssssscscccsccssssssccsssccccsscccccscssssssssccccsccccccsssscccscccsccccccsccssccccccccccccc" />
  </g>
</svg>
