<?xml version="1.0" encoding="UTF-8" standalone="no"?>
<!-- Created with Inkscape (http://www.inkscape.org/) -->

<svg
   width="93.14846mm"
   height="599.36414mm"
   viewBox="0 0 93.14846 599.36414"
   version="1.1"
   id="svg5"
   inkscape:version="1.1 (c68e22c387, 2021-05-23)"
   sodipodi:docname="soyuz.svg"
   xmlns:inkscape="http://www.inkscape.org/namespaces/inkscape"
   xmlns:sodipodi="http://sodipodi.sourceforge.net/DTD/sodipodi-0.dtd"
   xmlns="http://www.w3.org/2000/svg"
   xmlns:svg="http://www.w3.org/2000/svg">
  <sodipodi:namedview
     id="namedview7"
     pagecolor="#ffffff"
     bordercolor="#666666"
     borderopacity="1.0"
     inkscape:pageshadow="2"
     inkscape:pageopacity="0.0"
     inkscape:pagecheckerboard="0"
     inkscape:document-units="mm"
     showgrid="false"
     inkscape:zoom="0.45795778"
     inkscape:cx="1083.0693"
     inkscape:cy="1078.7021"
     inkscape:window-width="1920"
     inkscape:window-height="1079"
     inkscape:window-x="0"
     inkscape:window-y="0"
     inkscape:window-maximized="1"
     inkscape:current-layer="layer1"
     fit-margin-top="0"
     fit-margin-left="0"
     fit-margin-right="0"
     fit-margin-bottom="0" />
  <defs
     id="defs2" />
  <g
     inkscape:label="Calque 1"
     inkscape:groupmode="layer"
     id="layer1"
     transform="translate(-44.900227,-33.684602)">
    <path
       style="fill:#e6e6e6;stroke:#000000;stroke-width:0.264583px;stroke-linecap:butt;stroke-linejoin:miter;stroke-opacity:1"
       d="M 90.386305,33.90278 88.490555,36.343291 88.57,49 l -2,1.625 2,1.625 V 65 l -1.6,1 V 75.842383 109 h 6.739 V 76.356515 66 l -1.6,-1 V 52.25 l 2,-1.625 -2,-1.625 V 36.204825 Z"
       id="path54"
       sodipodi:nodetypes="cccccccccccccccccc" />
    <path
       style="fill:#e6e6e6;stroke:#000000;stroke-width:0.245697;stroke-linecap:butt;stroke-linejoin:round;stroke-miterlimit:4;stroke-dasharray:none;stroke-opacity:1"
       d="m 87.318298,77.004115 -1.827084,2.490176 0.514736,0.349627 c 1.090976,-0.56149 1.574135,0.06394 2.004775,0.439604 l 1.144591,-2.018043 c -0.433234,-0.821255 -1.098399,-1.123493 -1.837018,-1.261364 z"
       id="path6292-5"
       sodipodi:nodetypes="cccccc" />
    <path
       style="fill:#a02c2c;stroke:#000000;stroke-width:0.245697;stroke-linecap:butt;stroke-linejoin:round;stroke-miterlimit:4;stroke-dasharray:none;stroke-opacity:1"
       d="m 84.483864,82.080139 1.522077,-2.236221 c 0.690725,-0.404624 1.35864,-0.249476 2.004784,0.439604 l -0.02336,3.167756 c -0.991078,-1.314881 -2.23185,-1.417944 -3.503498,-1.371139 z"
       id="path6611-3"
       sodipodi:nodetypes="ccccc" />
    <path
       style="fill:#280b0b;stroke:#000000;stroke-width:0.245697;stroke-linecap:butt;stroke-linejoin:round;stroke-miterlimit:4;stroke-dasharray:none;stroke-opacity:1"
       d="m 87.987363,83.451278 c -1.466218,0.250142 -2.628808,-0.219342 -3.503499,-1.371139 2.19346,-0.09347 2.914004,0.603662 3.503499,1.371139"
       id="path8012-5"
       sodipodi:nodetypes="ccc" />
    <path
       style="fill:#e6e6e6;stroke:#000000;stroke-width:0.245697;stroke-linecap:butt;stroke-linejoin:round;stroke-miterlimit:4;stroke-dasharray:none;stroke-opacity:1"
       d="m 93.306486,76.827618 1.827084,2.490176 -0.514736,0.349627 c -1.090976,-0.56149 -1.574135,0.06394 -2.004775,0.439604 l -1.144591,-2.018043 c 0.433234,-0.821255 1.098399,-1.123493 1.837018,-1.261364 z"
       id="path6292-3-6"
       sodipodi:nodetypes="cccccc" />
    <path
       style="fill:#a02c2c;stroke:#000000;stroke-width:0.245697;stroke-linecap:butt;stroke-linejoin:round;stroke-miterlimit:4;stroke-dasharray:none;stroke-opacity:1"
       d="m 96.14092,81.903642 -1.522077,-2.236221 c -0.690725,-0.404624 -1.35864,-0.249476 -2.004784,0.439604 l 0.02336,3.167756 C 93.628498,81.9599 94.86927,81.856837 96.14092,81.903642 Z"
       id="path6611-6-2"
       sodipodi:nodetypes="ccccc" />
    <path
       style="fill:#280b0b;stroke:#000000;stroke-width:0.245697;stroke-linecap:butt;stroke-linejoin:round;stroke-miterlimit:4;stroke-dasharray:none;stroke-opacity:1"
       d="m 92.637421,83.274781 c 1.466218,0.250143 2.628808,-0.219342 3.503499,-1.371139 -2.19346,-0.09347 -2.914004,0.603663 -3.503499,1.371139"
       id="path8012-7-9"
       sodipodi:nodetypes="ccc" />
    <path
       style="fill:#b3b3b3;stroke:#000000;stroke-width:0.245311px;stroke-linecap:butt;stroke-linejoin:miter;stroke-opacity:1"
       d="m 90.182211,77.906782 -0.287918,1.548557 1.236476,-0.04479 -0.151193,-1.48875 z"
       id="path8632-1"
       sodipodi:nodetypes="ccccc" />
    <path
       style="fill:none;stroke:#4d4d4d;stroke-width:0.5;stroke-linecap:butt;stroke-linejoin:miter;stroke-miterlimit:4;stroke-dasharray:none;stroke-opacity:1"
       d="m 86.999515,76 h 6.728622"
       id="path8989"
       sodipodi:nodetypes="cc" />
    <path
       style="fill:#e6e6e6;stroke:#000000;stroke-width:0.264583px;stroke-linecap:butt;stroke-linejoin:miter;stroke-opacity:1"
       d="M 86.969998,109 74.5,130.5 h 32 L 93.708999,109 h -6.739001"
       id="path9275"
       sodipodi:nodetypes="ccccc" />
    <path
       style="fill:#e6e6e6;stroke:#000000;stroke-width:0.264583px;stroke-linecap:butt;stroke-linejoin:miter;stroke-opacity:1"
       d="m 74.5,130.5 v 30 c -2.719467,23.11294 -2.376926,41.3272 -1,59.5 h 34 c 1.15756,-20.08424 0.66556,-40.02769 -1,-59.5 v -30 z"
       id="path10813"
       sodipodi:nodetypes="ccccccc" />
    <path
       style="fill:#808080;stroke:#000000;stroke-width:0.264583px;stroke-linecap:butt;stroke-linejoin:miter;stroke-opacity:1"
       d="M 82,165.1741 V 186 L 90.833256,181.61378 99,186 v -20.81512 z"
       id="path9623"
       sodipodi:nodetypes="cccccc" />
    <path
       style="fill:#808080;stroke:#000000;stroke-width:0.264583px;stroke-linecap:butt;stroke-linejoin:miter;stroke-opacity:1"
       d="m 74.058546,165.026 c -0.29636,7.45641 -0.997193,15.11622 0.05155,21.8962 l -1.779048,0.0722 c -3.43513,-7.10997 0.06223,-14.65893 0.09335,-21.98839 z"
       id="path10094"
       sodipodi:nodetypes="ccccc" />
    <path
       style="fill:#808080;stroke:#000000;stroke-width:0.264583px;stroke-linecap:butt;stroke-linejoin:miter;stroke-opacity:1"
       d="m 106.59403,164.66246 c 0.29636,7.45641 0.99719,15.11622 -0.0516,21.8962 l 1.77904,0.0722 c 3.43513,-7.10997 -0.0622,-14.65893 -0.0934,-21.98839 z"
       id="path10094-2"
       sodipodi:nodetypes="ccccc" />
    <path
       style="fill:#1a1a1a;stroke:#000000;stroke-width:0.264583px;stroke-linecap:butt;stroke-linejoin:miter;stroke-opacity:1"
       d="m 73.5,220 1,10 v 34.82593 l 32,0.44294 V 230 l 1,-10 z"
       id="path11407"
       sodipodi:nodetypes="ccccccc" />
    <path
       style="fill:#e6e6e6;stroke:#000000;stroke-width:0.264583px;stroke-linecap:butt;stroke-linejoin:miter;stroke-opacity:1"
       d="M 74.499998,264.82593 74.5,290 h 32 v -24.73113 z"
       id="path11874"
       sodipodi:nodetypes="ccccc" />
    <path
       style="fill:#aa4400;stroke:#000000;stroke-width:0.264583px;stroke-linecap:butt;stroke-linejoin:miter;stroke-opacity:1"
       d="m 74.499998,290 2e-6,23 h 32 v -23 z"
       id="path12260"
       sodipodi:nodetypes="ccccc" />
    <path
       style="fill:#1a1a1a;stroke:#000000;stroke-width:0.264583px;stroke-linecap:butt;stroke-linejoin:miter;stroke-opacity:1"
       d="m 90,318.69033 -15.5,5.35062 v 3.94575 l 32,0.29165 v -4.05206 z"
       id="path12608"
       sodipodi:nodetypes="cccccc" />
    <circle
       id="path12980"
       style="fill:#1a1a1a;stroke:#4d4d4d;stroke-width:0.264583"
       cx="74.494339"
       cy="324.069"
       r="0.018036511" />
    <circle
       id="path12982"
       style="fill:#1a1a1a;stroke:#4d4d4d;stroke-width:0.264583"
       cx="74.494339"
       cy="324.069"
       r="0.018036511" />
    <path
       style="fill:none;stroke:#000000;stroke-width:0.8;stroke-linecap:butt;stroke-linejoin:round;stroke-miterlimit:4;stroke-dasharray:none;stroke-opacity:1"
       d="m 74.499998,312.99999 v 11.04096 L 106.5,324.22629 v -11.2263"
       id="path13017" />
    <path
       style="fill:none;stroke:#000000;stroke-width:0.8;stroke-linecap:butt;stroke-linejoin:round;stroke-miterlimit:4;stroke-dasharray:none;stroke-opacity:1"
       d="m 74.499998,324.04095 3.383778,-11.21405 1.857835,11.47262 4.188632,-11.42322 2.677991,11.33927 3.088931,-11.34729 2.899354,11.21934 3.031993,-10.92269 2.845366,10.9379 3.778582,-11.09702 4.24754,11.22048"
       id="path13019" />
    <path
       style="fill:#e6e6e6;stroke:#000000;stroke-width:0.265;stroke-linecap:butt;stroke-linejoin:miter;stroke-miterlimit:4;stroke-dasharray:none;stroke-opacity:1"
       d="m 74.499998,327.9867 2e-6,72.6531 3.5,59.45328 25,0.11695 3.5,-59.60428 v -72.3274 L 74.499998,327.9867"
       id="path13206"
       sodipodi:nodetypes="ccccccc" />
    <rect
       style="fill:#1a1a1a;stroke:#000000;stroke-width:0.270124;stroke-linecap:round;stroke-linejoin:round;stroke-miterlimit:4;stroke-dasharray:none"
       id="rect13614"
       width="24.979876"
       height="146.5072"
       x="78.002556"
       y="460.09564"
       ry="0" />
    <path
       style="fill:#1a1a1a;stroke:#000000;stroke-width:0.294988px;stroke-linecap:butt;stroke-linejoin:miter;stroke-opacity:1"
       d="m 79.041098,406.61903 -3.939979,14.2365 6.448071,-0.14015 z"
       id="path13894" />
    <path
       style="fill:#e6e6e6;stroke:#000000;stroke-width:0.294988px;stroke-linecap:butt;stroke-linejoin:miter;stroke-opacity:1"
       d="M 75.101119,420.85553 67.36843,452.27952 54.832451,553.14645 86.102811,554.11778 85.446354,450.17216 81.54919,420.71538 Z"
       id="path14115" />
    <path
       style="fill:#ececec;stroke:#000000;stroke-width:0.294988px;stroke-linecap:butt;stroke-linejoin:miter;stroke-opacity:1"
       d="m 77.220246,421.96088 -1.917438,2.82408 -0.96326,3.10089 2.105552,0.85429 1.261571,-4.08897 z"
       id="path14028" />
    <path
       style="fill:#4d4d4d;stroke:#000000;stroke-width:0.294988px;stroke-linecap:butt;stroke-linejoin:miter;stroke-opacity:1"
       d="m 54.832451,553.14645 -4.483419,49.5677 33.94563,1.83627 1.808149,-50.43264 z"
       id="path14318" />
    <path
       style="fill:#aa4400;stroke:#000000;stroke-width:0.294988px;stroke-linecap:butt;stroke-linejoin:miter;stroke-opacity:1"
       d="m 50.349032,602.71415 -1.3079,29.44744 32.983207,0.61931 2.270323,-28.23048 z"
       id="path14388" />
    <path
       style="fill:#e6e6e6;stroke:#000000;stroke-width:0.294988px;stroke-linecap:butt;stroke-linejoin:miter;stroke-opacity:1"
       d="m 54.316292,622.08222 -2.818717,-0.48474 -6.310663,7.19674 8.15133,1.31268 z"
       id="path14353" />
    <path
       style="fill:#1a1a1a;stroke:#000000;stroke-width:0.294988px;stroke-linecap:butt;stroke-linejoin:miter;stroke-opacity:1"
       d="m 103.90781,406.7368 3.93998,14.2365 -6.44807,-0.14015 z"
       id="path13894-7" />
    <path
       style="fill:#e6e6e6;stroke:#000000;stroke-width:0.294988px;stroke-linecap:butt;stroke-linejoin:miter;stroke-opacity:1"
       d="m 107.84779,420.9733 7.73269,31.42399 12.53598,100.86693 -31.270365,0.97133 0.656457,-103.94562 3.897168,-29.45678 z"
       id="path14115-0" />
    <path
       style="fill:#ececec;stroke:#000000;stroke-width:0.294988px;stroke-linecap:butt;stroke-linejoin:miter;stroke-opacity:1"
       d="m 105.72867,422.07865 1.91743,2.82408 0.96326,3.10089 -2.10555,0.85429 -1.26157,-4.08897 z"
       id="path14028-9" />
    <path
       style="fill:#4d4d4d;stroke:#000000;stroke-width:0.294988px;stroke-linecap:butt;stroke-linejoin:miter;stroke-opacity:1"
       d="m 128.11646,553.26422 4.48342,49.5677 -33.945636,1.83627 -1.808149,-50.43264 z"
       id="path14318-3" />
    <path
       style="fill:#aa4400;stroke:#000000;stroke-width:0.294988px;stroke-linecap:butt;stroke-linejoin:miter;stroke-opacity:1"
       d="m 132.59988,602.83192 1.3079,29.44744 -32.98321,0.61931 -2.270326,-28.23048 z"
       id="path14388-6" />
    <path
       style="fill:#e6e6e6;stroke:#000000;stroke-width:0.294988px;stroke-linecap:butt;stroke-linejoin:miter;stroke-opacity:1"
       d="m 128.63262,622.19999 2.81872,-0.48474 6.31066,7.19674 -8.15133,1.31268 z"
       id="path14353-0" />
  </g>
</svg>
